<svg width="19" height="19" viewBox="0 0 19 19" fill="none" xmlns="http://www.w3.org/2000/svg">
<path d="M2.60351 3.91704C2.3125 4.33165 2.3125 5.56405 2.3125 8.02889V9.24272C2.3125 13.5887 5.58003 15.6978 7.63014 16.5933C8.18625 16.8362 8.46429 16.9577 9.25 16.9577C10.0357 16.9577 10.3138 16.8362 10.8698 16.5933C12.9199 15.6978 16.1875 13.5887 16.1875 9.24272V8.02889C16.1875 5.56405 16.1875 4.33165 15.8965 3.91704C15.6055 3.50243 14.4467 3.10578 12.1291 2.31246L11.6876 2.16132C10.4795 1.74778 9.87545 1.54102 9.25 1.54102C8.62455 1.54102 8.02052 1.74778 6.81241 2.16132L6.37087 2.31246C4.05329 3.10578 2.8945 3.50243 2.60351 3.91704Z" fill="white"/>
</svg>
