<svg width="13" height="13" viewBox="0 0 13 13" fill="none" xmlns="http://www.w3.org/2000/svg">
<g filter="url(#filter0_d_440_164)">
<path d="M9.39727 3.59863V6.89863C9.39727 6.9782 9.36566 7.0545 9.3094 7.11077C9.25314 7.16703 9.17683 7.19863 9.09727 7.19863C9.0177 7.19863 8.94139 7.16703 8.88513 7.11077C8.82887 7.0545 8.79727 6.9782 8.79727 6.89863V5.69863C8.79727 5.45994 8.70244 5.23102 8.53366 5.06224C8.36488 4.89345 8.13596 4.79863 7.89727 4.79863H6.99727V1.19863C6.99727 1.0395 6.93405 0.886891 6.82153 0.774369C6.70901 0.661847 6.5564 0.598633 6.39727 0.598633H2.79727C2.63814 0.598633 2.48552 0.661847 2.373 0.774369C2.26048 0.886891 2.19727 1.0395 2.19727 1.19863V7.79863C2.19727 7.95776 2.26048 8.11038 2.373 8.2229C2.48552 8.33542 2.63814 8.39863 2.79727 8.39863H6.39727C6.5564 8.39863 6.70901 8.33542 6.82153 8.2229C6.93405 8.11038 6.99727 7.95776 6.99727 7.79863V5.39863H7.89727C7.97683 5.39863 8.05314 5.43024 8.1094 5.4865C8.16566 5.54276 8.19727 5.61907 8.19727 5.69863V6.89863C8.19727 7.13733 8.29209 7.36625 8.46087 7.53503C8.62965 7.70381 8.85857 7.79863 9.09727 7.79863C9.33596 7.79863 9.56488 7.70381 9.73366 7.53503C9.90244 7.36625 9.99727 7.13733 9.99727 6.89863V2.99863C9.99727 2.8395 9.93405 2.68689 9.82153 2.57437C9.70901 2.46185 9.5564 2.39863 9.39727 2.39863V1.49263C9.3957 1.41411 9.3634 1.33934 9.3073 1.28437C9.25121 1.2294 9.1758 1.19862 9.09727 1.19863C9.05549 1.19932 9.01429 1.20856 8.97622 1.22578C8.93815 1.243 8.90401 1.26783 8.8759 1.29875C8.84779 1.32967 8.82631 1.36602 8.81279 1.40555C8.79927 1.44509 8.79398 1.48698 8.79727 1.52863V2.99863C8.79727 3.1173 8.83246 3.23331 8.89838 3.33197C8.96431 3.43064 9.05802 3.50755 9.16766 3.55296C9.27729 3.59837 9.39793 3.61026 9.51432 3.5871C9.63071 3.56395 9.73762 3.50681 9.82153 3.4229C9.90544 3.33899 9.96259 3.23208 9.98574 3.11569C10.0089 2.9993 9.99701 2.87866 9.95159 2.76902C9.90618 2.65939 9.82928 2.56568 9.73061 2.49975C9.63194 2.43382 9.51593 2.39863 9.39727 2.39863V3.59863ZM6.39727 3.89863C6.39727 3.9782 6.36566 4.0545 6.3094 4.11076C6.25314 4.16703 6.17683 4.19863 6.09727 4.19863H3.09727C3.0177 4.19863 2.94139 4.16703 2.88513 4.11076C2.82887 4.0545 2.79727 3.9782 2.79727 3.89863V2.09863C2.79727 2.01907 2.82887 1.94276 2.88513 1.8865C2.94139 1.83024 3.0177 1.79863 3.09727 1.79863H6.09727C6.17683 1.79863 6.25314 1.83024 6.3094 1.8865C6.36566 1.94276 6.39727 2.01907 6.39727 2.09863V3.89863Z" fill="white"/>
</g>
<defs>
<filter id="filter0_d_440_164" x="-1.11765" y="0" width="13.2353" height="13.2353" filterUnits="userSpaceOnUse" color-interpolation-filters="sRGB">
<feFlood flood-opacity="0" result="BackgroundImageFix"/>
<feColorMatrix in="SourceAlpha" type="matrix" values="0 0 0 0 0 0 0 0 0 0 0 0 0 0 0 0 0 0 127 0" result="hardAlpha"/>
<feOffset dy="2.11765"/>
<feGaussianBlur stdDeviation="1.05882"/>
<feComposite in2="hardAlpha" operator="out"/>
<feColorMatrix type="matrix" values="0 0 0 0 0 0 0 0 0 0 0 0 0 0 0 0 0 0 0.25 0"/>
<feBlend mode="normal" in2="BackgroundImageFix" result="effect1_dropShadow_440_164"/>
<feBlend mode="normal" in="SourceGraphic" in2="effect1_dropShadow_440_164" result="shape"/>
</filter>
</defs>
</svg>
