<svg width="27" height="23" viewBox="0 0 27 23" fill="none" xmlns="http://www.w3.org/2000/svg">
<g clip-path="url(#clip0_344_292)">
<path d="M7.425 12.7438C8.0455 12.7438 8.65992 12.6215 9.23318 12.3841C9.80644 12.1466 10.3273 11.7986 10.7661 11.3598C11.2048 10.9211 11.5529 10.4002 11.7903 9.82693C12.0278 9.25367 12.15 8.63925 12.15 8.01875C12.15 7.39825 12.0278 6.78383 11.7903 6.21057C11.5529 5.63731 11.2048 5.11643 10.7661 4.67767C10.3273 4.23891 9.80644 3.89087 9.23318 3.65342C8.65992 3.41597 8.0455 3.29375 7.425 3.29375C6.8045 3.29375 6.19008 3.41597 5.61682 3.65342C5.04356 3.89087 4.52268 4.23891 4.08392 4.67767C3.64516 5.11643 3.29712 5.63731 3.05967 6.21057C2.82222 6.78383 2.7 7.39825 2.7 8.01875C2.7 8.63925 2.82222 9.25367 3.05967 9.82693C3.29712 10.4002 3.64516 10.9211 4.08392 11.3598C4.52268 11.7986 5.04356 12.1466 5.61682 12.3841C6.19008 12.6215 6.8045 12.7438 7.425 12.7438ZM14.85 8.01875C14.85 11.6595 12.2302 14.6886 8.775 15.3214V16.7938H10.125C10.8717 16.7938 11.475 17.397 11.475 18.1438C11.475 18.8905 10.8717 19.4937 10.125 19.4937H8.775V20.8438C8.775 21.5905 8.17172 22.1938 7.425 22.1938C6.67828 22.1938 6.075 21.5905 6.075 20.8438V19.4937H4.725C3.97828 19.4937 3.375 18.8905 3.375 18.1438C3.375 17.397 3.97828 16.7938 4.725 16.7938H6.075V15.3214C2.61984 14.6886 0 11.6595 0 8.01875C0 3.91813 3.32438 0.59375 7.425 0.59375C11.5256 0.59375 14.85 3.91813 14.85 8.01875ZM11.4708 15.8066C12.285 15.3805 13.0275 14.832 13.6687 14.1866C14.5125 14.967 15.6389 15.4438 16.8792 15.4438C19.4906 15.4438 21.6042 13.3302 21.6042 10.7188C21.6042 8.10734 19.4906 5.99375 16.8792 5.99375C16.5755 5.99375 16.2759 6.02328 15.9891 6.07812C15.7823 5.17109 15.4406 4.31891 14.9766 3.53844C15.5798 3.37813 16.2169 3.29375 16.875 3.29375C18.4359 3.29375 19.8872 3.77469 21.0853 4.60156L21.9544 3.7325L20.5453 2.32344C20.2542 2.03234 20.1698 1.59781 20.3259 1.21813C20.482 0.838438 20.8533 0.59375 21.2625 0.59375H25.9875C26.5486 0.59375 27 1.04516 27 1.60625V6.33125C27 6.74047 26.7553 7.11172 26.3756 7.26781C25.9959 7.42391 25.5614 7.33953 25.2703 7.04844L23.8612 5.63938L22.9922 6.50844C23.8148 7.70656 24.3 9.15359 24.3 10.7188C24.3 14.8194 20.9756 18.1438 16.875 18.1438C14.7445 18.1438 12.825 17.2452 11.4708 15.8066Z" fill="white"/>
</g>
<defs>
<clipPath id="clip0_344_292">
<rect width="27" height="21.6" fill="white" transform="translate(0 0.59375)"/>
</clipPath>
</defs>
</svg>
