<svg width="24" height="24" viewBox="0 0 24 24" fill="none" xmlns="http://www.w3.org/2000/svg">
<g clip-path="url(#clip0_343_148)">
<path fill-rule="evenodd" clip-rule="evenodd" d="M2.39961 22.7998C2.09961 22.7998 1.79961 22.6998 1.59961 22.4998C1.09961 21.9998 1.09961 21.2998 1.59961 20.7998L20.6996 1.5998C20.8996 1.3998 21.1996 1.2998 21.4996 1.2998C21.7996 1.2998 22.0996 1.3998 22.2996 1.5998C22.7996 2.0998 22.7996 2.7998 22.2996 3.2998L19.4996 6.0998C19.6996 6.2998 19.9996 6.39981 20.1996 6.5998C21.1996 7.39981 22.0996 8.2998 22.7996 9.1998C23.4996 10.1998 23.8996 11.1998 23.8996 11.9998C23.8996 12.7998 23.4996 13.7998 22.7996 14.7998C22.1996 15.6998 21.2996 16.5998 20.1996 17.3998C18.7996 18.4998 15.7996 20.2998 11.7996 20.2998C9.89961 20.2998 8.09961 19.8998 6.29961 19.0998L2.99961 22.3998C2.99961 22.6998 2.69961 22.7998 2.39961 22.7998ZM8.29961 17.3998C9.49961 17.7998 10.7996 17.9998 11.9996 17.9998C15.1996 17.9998 17.6996 16.4998 18.8996 15.4998C19.6996 14.7998 20.4996 14.0998 20.9996 13.3998C21.4996 12.6998 21.5996 12.1998 21.5996 11.8998C21.5996 11.5998 21.3996 11.0998 20.9996 10.3998C20.4996 9.6998 19.7996 8.9998 18.8996 8.2998C18.5996 8.0998 18.2996 7.7998 17.8996 7.5998L16.0996 9.3998C16.4996 10.0998 16.7996 10.9998 16.7996 11.7998C16.7996 14.3998 14.6996 16.5998 11.9996 16.5998C11.0996 16.5998 10.2996 16.3998 9.59961 15.8998L8.29961 17.3998ZM11.2996 14.2998C11.4996 14.3998 11.6996 14.3998 11.8996 14.3998C13.1996 14.3998 14.2996 13.2998 14.2996 11.9998C14.2996 11.7998 14.2996 11.5998 14.1996 11.3998L11.2996 14.2998Z" fill="white"/>
<path fill-rule="evenodd" clip-rule="evenodd" d="M22.2 3.1C22.6 2.7 22.6 2.2 22.2 1.8C21.8 1.4 21.3 1.4 20.9 1.8L1.8 21C1.4 21.4 1.4 21.9 1.8 22.3C2.2 22.7 2.7 22.7 3.1 22.3L6.5 18.9C8.1 19.7 10 20.2 12 20.2C15.2 20.2 18.1 18.9 20.2 17.3C21.2 16.5 22.1 15.6 22.7 14.7C23.3 13.9 23.7 12.9 23.7 12.1C23.7 11.3 23.3 10.3 22.7 9.5C22.1 8.6 21.2 7.7 20.2 6.9C19.9 6.7 19.6 6.4 19.2 6.2L22.2 3.1ZM17.9 7.4L15.8 9.5C16.3 10.2 16.5 11.1 16.5 12C16.5 14.5 14.5 16.5 12 16.5C11.1 16.5 10.2 16.2 9.5 15.8L7.8 17.5C9.1 18 10.5 18.3 12 18.3C14.7 18.3 17.3 17.2 19.1 15.8C20 15.1 20.7 14.3 21.2 13.6C21.7 12.9 21.9 12.3 21.9 12C21.9 11.7 21.7 11.1 21.2 10.4C20.7 9.7 20 8.9 19.1 8.2C18.7 7.9 18.3 7.7 17.9 7.4ZM10.8 14.5C11.2 14.7 11.5 14.8 12 14.8C13.5 14.8 14.7 13.6 14.7 12.1C14.7 11.7 14.6 11.3 14.4 10.9L10.8 14.5Z" fill="white"/>
<path d="M3.50039 17.1996C3.40039 17.1996 3.20039 17.1996 3.10039 17.0996C2.30039 16.3996 1.50039 15.5996 1.00039 14.8996C0.300391 13.8996 -0.0996094 12.8996 -0.0996094 12.0996C-0.0996094 11.2996 0.300391 10.2996 1.00039 9.29961C1.60039 8.39961 2.50039 7.49961 3.60039 6.69961C5.10039 5.49961 8.00039 3.59961 12.0004 3.59961C13.2004 3.59961 14.4004 3.79961 15.6004 4.09961C15.8004 4.19961 16.0004 4.39961 16.0004 4.59961C16.1004 4.79961 16.0004 4.99961 15.8004 5.19961L14.8004 6.19961C14.7004 6.29961 14.5004 6.39961 14.4004 6.39961H14.3004C13.5004 6.09961 12.7004 5.99961 12.0004 5.99961C8.80039 5.99961 6.30039 7.49961 5.10039 8.49961C4.20039 9.09961 3.50039 9.79961 3.00039 10.5996C2.50039 11.2996 2.40039 11.7996 2.40039 12.0996C2.40039 12.3996 2.60039 12.8996 3.00039 13.5996C3.40039 14.1996 4.00039 14.8996 4.70039 15.3996C4.90039 15.3996 5.00039 15.5996 5.00039 15.6996C5.00039 15.8996 4.90039 15.9996 4.80039 16.0996L3.90039 16.9996C3.80039 17.1996 3.70039 17.1996 3.50039 17.1996Z" fill="white"/>
<path d="M12.0008 3.90039C13.2008 3.90039 14.4008 4.10039 15.5008 4.40039C15.7008 4.50039 15.8008 4.70039 15.6008 4.90039L14.6008 5.90039C14.6008 6.00039 14.5008 6.00039 14.4008 6.00039C13.6008 5.80039 12.8008 5.70039 12.0008 5.70039C9.30078 5.70039 6.70078 6.80039 4.90078 8.20039C4.00078 8.90039 3.30078 9.70039 2.80078 10.4004C2.30078 11.1004 2.10078 11.7004 2.10078 12.0004C2.10078 12.3004 2.30078 12.9004 2.80078 13.6004C3.20078 14.2004 3.80078 14.9004 4.60078 15.5004C4.70078 15.6004 4.80078 15.8004 4.60078 16.0004L3.70078 16.9004C3.60078 17.0004 3.40078 17.0004 3.30078 16.9004C2.50078 16.2004 1.80078 15.5004 1.30078 14.7004C0.700781 13.9004 0.300781 12.9004 0.300781 12.1004C0.300781 11.3004 0.700781 10.3004 1.30078 9.50039C1.90078 8.60039 2.80078 7.70039 3.80078 6.90039C5.90078 5.20039 8.80078 3.90039 12.0008 3.90039Z" fill="white"/>
<path d="M7.79922 12.9998C7.49922 12.9998 7.29922 12.7998 7.19922 12.4998C7.19922 12.3998 7.19922 12.1998 7.19922 12.0998C7.19922 9.4998 9.29922 7.2998 11.9992 7.2998C12.1992 7.2998 12.2992 7.2998 12.3992 7.2998C12.5992 7.2998 12.7992 7.4998 12.8992 7.6998C12.9992 7.8998 12.8992 8.0998 12.7992 8.2998L11.2992 9.7998L11.1992 9.8998C10.4992 10.0998 9.89922 10.6998 9.69922 11.3998C9.69922 11.3998 9.69922 11.4998 9.59922 11.4998L8.09922 12.9998C8.09922 12.8998 7.89922 12.9998 7.79922 12.9998Z" fill="white"/>
<path d="M12 7.5C12.1 7.5 12.3 7.5 12.4 7.5C12.6 7.5 12.7 7.8 12.6 8L11.1 9.5C10.3 9.8 9.7 10.4 9.4 11.2L8 12.6C7.8 12.8 7.6 12.7 7.5 12.4C7.5 12.3 7.5 12.1 7.5 12C7.5 9.5 9.5 7.5 12 7.5Z" fill="white"/>
</g>
<defs>
<clipPath id="clip0_343_148">
<rect width="24" height="24" fill="white"/>
</clipPath>
</defs>
</svg>
