<svg width="24" height="24" viewBox="0 0 24 24" fill="none" xmlns="http://www.w3.org/2000/svg">
<g clip-path="url(#clip0_343_143)">
<path fill-rule="evenodd" clip-rule="evenodd" d="M11.9992 16.8002C9.39922 16.8002 7.19922 14.6002 7.19922 12.0002C7.19922 9.4002 9.39922 7.2002 11.9992 7.2002C14.5992 7.2002 16.7992 9.4002 16.7992 12.0002C16.7992 14.6002 14.5992 16.8002 11.9992 16.8002ZM11.9992 9.6002C10.6992 9.6002 9.59922 10.7002 9.59922 12.0002C9.59922 13.3002 10.6992 14.4002 11.9992 14.4002C13.2992 14.4002 14.3992 13.3002 14.3992 12.0002C14.3992 10.7002 13.2992 9.6002 11.9992 9.6002Z" fill="white"/>
<path fill-rule="evenodd" clip-rule="evenodd" d="M7.40039 12.0004C7.40039 9.50039 9.50039 7.40039 12.0004 7.40039C14.5004 7.40039 16.6004 9.50039 16.6004 12.0004C16.6004 14.5004 14.5004 16.6004 12.0004 16.6004C9.50039 16.6004 7.40039 14.5004 7.40039 12.0004ZM12.0004 9.20039C10.5004 9.20039 9.20039 10.4004 9.20039 12.0004C9.20039 13.6004 10.4004 14.8004 12.0004 14.8004C13.6004 14.8004 14.8004 13.6004 14.8004 12.0004C14.8004 10.4004 13.5004 9.20039 12.0004 9.20039Z" fill="white"/>
<path fill-rule="evenodd" clip-rule="evenodd" d="M12.0004 20.3996C8.10039 20.3996 5.10039 18.5996 3.60039 17.4996C2.60039 16.6996 1.70039 15.7996 1.00039 14.8996C0.300391 13.8996 -0.0996094 12.8996 -0.0996094 12.0996C-0.0996094 11.2996 0.300391 10.2996 1.00039 9.29961C1.60039 8.39961 2.50039 7.49961 3.60039 6.69961C5.10039 5.39961 8.10039 3.59961 12.0004 3.59961C15.9004 3.59961 18.9004 5.39961 20.4004 6.49961C21.4004 7.29961 22.3004 8.19961 23.0004 9.09961C23.7004 10.0996 24.1004 11.0996 24.1004 11.8996C24.1004 12.6996 23.7004 13.6996 23.0004 14.6996C22.4004 15.5996 21.5004 16.4996 20.4004 17.2996C18.9004 18.5996 15.9004 20.3996 12.0004 20.3996ZM12.0004 5.99961C8.80039 5.99961 6.30039 7.49961 5.10039 8.39961C4.20039 9.09961 3.50039 9.79961 3.00039 10.4996C2.50039 11.1996 2.40039 11.6996 2.40039 11.9996C2.40039 12.2996 2.60039 12.7996 3.00039 13.4996C3.50039 14.1996 4.20039 14.8996 5.10039 15.5996C6.30039 16.4996 8.80039 17.9996 12.0004 17.9996C15.2004 17.9996 17.7004 16.4996 18.9004 15.4996C19.7004 14.7996 20.5004 14.0996 21.0004 13.3996C21.5004 12.6996 21.6004 12.1996 21.6004 11.8996C21.6004 11.5996 21.4004 11.0996 21.0004 10.3996C20.5004 9.69961 19.8004 8.99961 18.9004 8.29961C17.7004 7.49961 15.2004 5.99961 12.0004 5.99961Z" fill="white"/>
<path fill-rule="evenodd" clip-rule="evenodd" d="M2.6 10.3002C2 11.1002 1.8 11.7002 1.8 12.0002C1.8 12.3002 2 12.9002 2.5 13.7002C3 14.4002 3.7 15.2002 4.7 15.9002C6.6 17.3002 9.2 18.5002 12 18.5002C14.8 18.5002 17.4 17.4002 19.3 15.9002C20.2 15.2002 21 14.4002 21.5 13.7002C22 13.0002 22.2 12.4002 22.2 12.0002C22.2 11.6002 22 11.1002 21.5 10.3002C21 9.6002 20.3 8.8002 19.3 8.1002C17.4 6.7002 14.8 5.5002 12 5.5002C9.2 5.5002 6.6 6.6002 4.7 8.1002C3.8 8.8002 3.1 9.6002 2.6 10.3002ZM3.6 6.7002C5.7 5.1002 8.7 3.7002 12 3.7002C15.3 3.7002 18.3 5.0002 20.4 6.7002C21.5 7.5002 22.3 8.4002 23 9.3002C23.6 10.2002 24 11.1002 24 12.0002C24 12.9002 23.6 13.8002 23 14.7002C22.4 15.6002 21.5 16.5002 20.4 17.3002C18.3 18.9002 15.3 20.3002 12 20.3002C8.7 20.3002 5.7 19.0002 3.6 17.3002C2.5 16.5002 1.7 15.6002 1 14.7002C0.4 13.8002 0 12.9002 0 12.0002C0 11.1002 0.4 10.2002 1 9.3002C1.7 8.4002 2.5 7.5002 3.6 6.7002Z" fill="white"/>
</g>
<defs>
<clipPath id="clip0_343_143">
<rect width="24" height="24" fill="white"/>
</clipPath>
</defs>
</svg>
