<svg width="66" height="67" viewBox="0 0 66 67" fill="none" xmlns="http://www.w3.org/2000/svg">
<g filter="url(#filter0_b_357_130)">
<rect y="0.927734" width="65.8333" height="65.8333" rx="7.52381" fill="#F76E19"/>
<rect x="0.470238" y="1.39797" width="64.8929" height="64.8929" rx="7.05357" stroke="white" stroke-opacity="0.2" stroke-width="0.940476"/>
</g>
<path d="M32.9241 36.4092L42.4375 31.3162V39.6585C42.4375 40.1416 42.2267 40.6075 41.8468 40.9531C41.4666 41.2989 40.9486 41.495 40.4062 41.495H24.5938C24.0514 41.495 23.5334 41.2989 23.1532 40.9531C22.7733 40.6075 22.5625 40.1416 22.5625 39.6585V31.3188L32.0759 36.4093L32.0756 36.4097L32.0863 36.4142L32.2042 36.4639L32.2041 36.4642L32.213 36.4673C32.329 36.5061 32.4526 36.521 32.5752 36.511C32.6978 36.5011 32.8169 36.4665 32.924 36.4093L32.9241 36.4092ZM43.0315 26.7928C42.3334 26.1577 41.3889 25.8027 40.4062 25.8027H24.5938C23.6111 25.8027 22.6666 26.1577 21.9685 26.7928C21.27 27.4282 20.875 28.2927 20.875 29.197V39.6585C20.875 40.5627 21.27 41.4272 21.9685 42.0627C22.6666 42.6977 23.6111 43.0527 24.5938 43.0527H40.4062C41.3889 43.0527 42.3334 42.6977 43.0315 42.0627C43.73 41.4272 44.125 40.5627 44.125 39.6585V29.197C44.125 28.2927 43.73 27.4282 43.0315 26.7928ZM24.5938 27.3604H40.4062C40.9486 27.3604 41.4666 27.5565 41.8468 27.9024C42.2267 28.2479 42.4375 28.7139 42.4375 29.197V29.5144L32.5 34.8352L22.5625 29.517V29.197C22.5625 28.7139 22.7733 28.2479 23.1532 27.9024C23.5334 27.5565 24.0514 27.3604 24.5938 27.3604Z" fill="white" stroke="white" stroke-width="0.25"/>
<defs>
<filter id="filter0_b_357_130" x="-9.40476" y="-8.47703" width="84.6435" height="84.6425" filterUnits="userSpaceOnUse" color-interpolation-filters="sRGB">
<feFlood flood-opacity="0" result="BackgroundImageFix"/>
<feGaussianBlur in="BackgroundImageFix" stdDeviation="4.70238"/>
<feComposite in2="SourceAlpha" operator="in" result="effect1_backgroundBlur_357_130"/>
<feBlend mode="normal" in="SourceGraphic" in2="effect1_backgroundBlur_357_130" result="shape"/>
</filter>
</defs>
</svg>
