<svg width="66" height="66" viewBox="0 0 66 66" fill="none" xmlns="http://www.w3.org/2000/svg">
<g filter="url(#filter0_b_351_135)">
<rect y="0.0947266" width="65.8333" height="65.8333" rx="7.52381" fill="#F76E19"/>
<rect x="0.470238" y="0.564965" width="64.8929" height="64.8929" rx="7.05357" stroke="white" stroke-opacity="0.2" stroke-width="0.940476"/>
</g>
<path d="M36.1203 23.1934C35.0877 23.1931 34.0694 23.4348 33.147 23.8989C32.2246 24.3631 31.4237 25.0369 30.8086 25.8663C30.1935 26.6957 29.7812 27.6577 29.6048 28.6751C29.4284 29.6925 29.4927 30.7372 29.7927 31.7252L22.1602 39.3578V43.7663H26.5686L34.2012 36.1337C35.1107 36.4098 36.0691 36.4866 37.011 36.3588C37.9529 36.231 38.8562 35.9016 39.6593 35.3931C40.4623 34.8847 41.1464 34.209 41.6647 33.4123C42.1831 32.6156 42.5236 31.7164 42.6631 30.7762C42.8025 29.836 42.7376 28.8767 42.4728 27.9638C42.208 27.0509 41.7495 26.2058 41.1285 25.4862C40.5076 24.7665 39.7388 24.1892 38.8745 23.7935C38.0103 23.3978 37.0709 23.1931 36.1203 23.1934ZM36.1203 34.9493C35.6145 34.949 35.1114 34.8743 34.6273 34.7274L33.7846 34.4717L33.1623 35.0941L30.825 37.4313L29.8118 36.4188L28.7729 37.4577L29.7861 38.471L28.6208 39.6363L27.6076 38.623L26.5686 39.662L27.5819 40.6752L25.9603 42.2968H23.6297V39.9662L30.8316 32.7642L31.4547 32.1418L31.199 31.2991C30.885 30.2638 30.9054 29.1559 31.2573 28.1329C31.6093 27.1099 32.2748 26.2239 33.1593 25.601C34.0439 24.9781 35.1023 24.6499 36.184 24.6632C37.2658 24.6766 38.3158 25.0306 39.1848 25.6751C40.0537 26.3196 40.6973 27.2217 41.0239 28.253C41.3506 29.2844 41.3437 30.3925 41.0043 31.4197C40.6649 32.4469 40.0102 33.341 39.1334 33.9747C38.2565 34.6083 37.2022 34.9494 36.1203 34.9493Z" fill="white"/>
<path d="M36.8543 30.5415C37.6658 30.5415 38.3238 29.8836 38.3238 29.072C38.3238 28.2605 37.6658 27.6025 36.8543 27.6025C36.0427 27.6025 35.3848 28.2605 35.3848 29.072C35.3848 29.8836 36.0427 30.5415 36.8543 30.5415Z" fill="white"/>
<defs>
<filter id="filter0_b_351_135" x="-9.40476" y="-9.31003" width="84.6435" height="84.6425" filterUnits="userSpaceOnUse" color-interpolation-filters="sRGB">
<feFlood flood-opacity="0" result="BackgroundImageFix"/>
<feGaussianBlur in="BackgroundImageFix" stdDeviation="4.70238"/>
<feComposite in2="SourceAlpha" operator="in" result="effect1_backgroundBlur_351_135"/>
<feBlend mode="normal" in="SourceGraphic" in2="effect1_backgroundBlur_351_135" result="shape"/>
</filter>
</defs>
</svg>
