<svg width="66" height="67" viewBox="0 0 66 67" fill="none" xmlns="http://www.w3.org/2000/svg">
<g filter="url(#filter0_b_351_134)">
<rect y="0.261719" width="65.8333" height="65.8333" rx="7.52381" fill="#F76E19"/>
<rect x="0.470238" y="0.731957" width="64.8929" height="64.8929" rx="7.05357" stroke="white" stroke-opacity="0.2" stroke-width="0.940476"/>
</g>
<path d="M32.918 33.1787C34.2275 33.1787 35.4833 32.6585 36.4093 31.7326C37.3353 30.8066 37.8555 29.5507 37.8555 28.2412C37.8555 26.9317 37.3353 25.6758 36.4093 24.7499C35.4833 23.8239 34.2275 23.3037 32.918 23.3037C31.6085 23.3037 30.3526 23.8239 29.4266 24.7499C28.5007 25.6758 27.9805 26.9317 27.9805 28.2412C27.9805 29.5507 28.5007 30.8066 29.4266 31.7326C30.3526 32.6585 31.6085 33.1787 32.918 33.1787ZM36.2096 28.2412C36.2096 29.1142 35.8628 29.9515 35.2455 30.5688C34.6282 31.1861 33.791 31.5329 32.918 31.5329C32.045 31.5329 31.2077 31.1861 30.5904 30.5688C29.9731 29.9515 29.6263 29.1142 29.6263 28.2412C29.6263 27.3682 29.9731 26.531 30.5904 25.9137C31.2077 25.2963 32.045 24.9495 32.918 24.9495C33.791 24.9495 34.6282 25.2963 35.2455 25.9137C35.8628 26.531 36.2096 27.3682 36.2096 28.2412ZM42.793 41.4079C42.793 43.0537 41.1471 43.0537 41.1471 43.0537H24.6888C24.6888 43.0537 23.043 43.0537 23.043 41.4079C23.043 39.762 24.6888 34.8245 32.918 34.8245C41.1471 34.8245 42.793 39.762 42.793 41.4079ZM41.1471 41.4013C41.1455 40.9964 40.8937 39.7785 39.7778 38.6626C38.7047 37.5895 36.6853 36.4704 32.918 36.4704C29.149 36.4704 27.1312 37.5895 26.0581 38.6626C24.9423 39.7785 24.6921 40.9964 24.6888 41.4013H41.1471Z" fill="white"/>
<defs>
<filter id="filter0_b_351_134" x="-9.40476" y="-9.14304" width="84.6435" height="84.6425" filterUnits="userSpaceOnUse" color-interpolation-filters="sRGB">
<feFlood flood-opacity="0" result="BackgroundImageFix"/>
<feGaussianBlur in="BackgroundImageFix" stdDeviation="4.70238"/>
<feComposite in2="SourceAlpha" operator="in" result="effect1_backgroundBlur_351_134"/>
<feBlend mode="normal" in="SourceGraphic" in2="effect1_backgroundBlur_351_134" result="shape"/>
</filter>
</defs>
</svg>
