<svg width="66" height="67" viewBox="0 0 66 67" fill="none" xmlns="http://www.w3.org/2000/svg">
<g filter="url(#filter0_b_363_136)">
<rect y="0.760742" width="65.8333" height="65.8333" rx="7.52381" fill="#F76E19"/>
<rect x="0.470238" y="1.23098" width="64.8929" height="64.8929" rx="7.05357" stroke="white" stroke-opacity="0.2" stroke-width="0.940476"/>
</g>
<path d="M30.168 34.167C31.4775 34.167 32.7333 33.6468 33.6593 32.7208C34.5853 31.7949 35.1055 30.539 35.1055 29.2295C35.1055 27.92 34.5853 26.6641 33.6593 25.7382C32.7333 24.8122 31.4775 24.292 30.168 24.292C28.8585 24.292 27.6026 24.8122 26.6766 25.7382C25.7507 26.6641 25.2305 27.92 25.2305 29.2295C25.2305 30.539 25.7507 31.7949 26.6766 32.7208C27.6026 33.6468 28.8585 34.167 30.168 34.167ZM33.4596 29.2295C33.4596 30.1025 33.1128 30.9397 32.4955 31.5571C31.8782 32.1744 31.041 32.5212 30.168 32.5212C29.295 32.5212 28.4577 32.1744 27.8404 31.5571C27.2231 30.9397 26.8763 30.1025 26.8763 29.2295C26.8763 28.3565 27.2231 27.5192 27.8404 26.9019C28.4577 26.2846 29.295 25.9378 30.168 25.9378C31.041 25.9378 31.8782 26.2846 32.4955 26.9019C33.1128 27.5192 33.4596 28.3565 33.4596 29.2295ZM40.043 42.3962C40.043 44.042 38.3971 44.042 38.3971 44.042H21.9388C21.9388 44.042 20.293 44.042 20.293 42.3962C20.293 40.7503 21.9388 35.8128 30.168 35.8128C38.3971 35.8128 40.043 40.7503 40.043 42.3962ZM38.3971 42.3896C38.3955 41.9847 38.1437 40.7668 37.0278 39.6509C35.9547 38.5778 33.9353 37.4587 30.168 37.4587C26.399 37.4587 24.3812 38.5778 23.3081 39.6509C22.1923 40.7668 21.9421 41.9847 21.9388 42.3896H38.3971Z" fill="white"/>
<path d="M39 33.2393H47M43 29.2393V37.2393" stroke="white" stroke-width="1.5" stroke-linecap="round" stroke-linejoin="round"/>
<defs>
<filter id="filter0_b_363_136" x="-9.40476" y="-8.64402" width="84.6435" height="84.6425" filterUnits="userSpaceOnUse" color-interpolation-filters="sRGB">
<feFlood flood-opacity="0" result="BackgroundImageFix"/>
<feGaussianBlur in="BackgroundImageFix" stdDeviation="4.70238"/>
<feComposite in2="SourceAlpha" operator="in" result="effect1_backgroundBlur_363_136"/>
<feBlend mode="normal" in="SourceGraphic" in2="effect1_backgroundBlur_363_136" result="shape"/>
</filter>
</defs>
</svg>
